/* XPM */
static char *result[] = {
/* columns rows colors chars-per-pixel */
"128 128 41 1 ",
"  c #3498DB",
". c #3A9BDC",
"X c #439EDD",
"o c #4DA4DF",
"O c #50A5DF",
"+ c #53A6E0",
"@ c #57A8E1",
"# c #5BAAE2",
"$ c #63ADE3",
"% c #67B0E3",
"& c #6AB1E4",
"* c #73B5E5",
"= c #77B8E6",
"- c #7AB9E7",
"; c #7DBBE8",
": c #81BCE7",
"> c #82BDE8",
", c #8BC2EA",
"< c #92C5EB",
"1 c #96C8EC",
"2 c #9AC9ED",
"3 c #A3CEEE",
"4 c #A6D0EF",
"5 c #A8D1EF",
"6 c #ADD3F0",
"7 c #B3D6F1",
"8 c #B5D8F1",
"9 c #BCDBF3",
"0 c #C3DEF4",
"q c #C6E0F5",
"w c #CAE3F5",
"e c #D2E6F7",
"r c #D5E9F7",
"t c #D6E9F8",
"y c #DBEBF8",
"u c #E1EFFA",
"i c #E4F1FA",
"p c #ECF5FB",
"a c #F1F7FC",
"s c #F4F9FD",
"d c #FFFFFF",
/* pixels */
"dddddddddddddddddddddddddddddddddddddddddddddddddddddddddddddddddddddddddddddddddddddddddddddddddddddddddddddddddddddddddddddddd",
"dddddddddddddddddddddddddddddddddddddddddddddddddddddddddddddddddddddddddddddddddddddddddddddddddddddday055qysdddddddddddddddddd",
"ddddddddddddddddddddddddddddddddddddddddddddddddddddddddddddddddddddddddddddddddddddddddddddddddddddi3*#OXoO$*5pdddddddddddddddd",
"dddddddddddddddddddddddddddddddddddddddddddddddddddddddddddddddddddddddddddddddddddddddddddddddddds0*X        o*qsdddddddddddddd",
"ddddddddddddddddddddddddddddddddddddddddddddddddddddddddddddddddddddddddddddddddddddddddddddddddds8O.           #9sddddddddddddd",
"dddddddddddddddddddddddddddddddddddddddddddddddddddddddddddddddddddddddddddddddddddddddddddddddds7o             .O9sdddddddddddd",
"ddddddddddddddddddddddddddddddddddddddddddddddddddddddddddddddddddddddddddddddddddddddddddddddds7o              . O0sddddddddddd",
"dddddddddddddddddddddddddddddddddddddddddddddddddddddddddddddddddddddddddddddddddddddddddddddds8o                 .O0sdddddddddd",
"ddddddddddddddddddddddddddddddddddddddddddddddddddddddddddddddddddddddddddddddddddddddddddddds7O                    +9sddddddddd",
"dddddddddddddddddddddddddddddddddddddddddddddddddddddddddddddddddddddddddddddddddddddddddddds7O                     .#9sdddddddd",
"ddddddddddddddddddddddddddddddddddddddddddddddddddddddddddddddddddddddddddddddddddddddddddds5+                        @8sddddddd",
"dddddddddddddddddddddddddddddddddddddddddddddddddddddddddddddddddddddddddddddddddddddddddds6+.                        .#9sdddddd",
"ddddddddddddddddddddddddddddddddddddddddddddddddddddddddddddddddddddddddddddddddddddddddds6+                            #7sddddd",
"dddddddddddddddddddddddddddddddddddddddddddddddddddddddddddddddddddddddddddddddddddddddds7+                              #9sdddd",
"ddddddddddddddddddddddddddddddddddddddddddddddddddddddddddddddddddddddddddddddddddddddds7+.                              .#9sddd",
"dddddddddddddddddddddddddddddddddddddddddddddddddddddddddddddddddddddddddddddddddddddds7O                                 .#9sdd",
"ddddddddddddddddddddddddddddddddddddddddddddddddddddddddddddddddddddddddddddddddddddds9o.                                   Owdd",
"dddddddddddddddddddddddddddddddddddddddddddddddddddddddddddddddddddddddddddddddddddddp>.                                    .*ud",
"ddddddddddddddddddddddddddddddddddddddddddddddddddddddddddddddddddddddddddddddddddddddy*.                                     3s",
"dddddddddddddddddddddddddddddddddddddddddddddddddddddddddddddddddddddddddddddddddddddddy*.                                    #y",
"dddddddddddddddddddddddddddddddddddddddddddddddddddddddddddddddddddddddddddddddddddddddsr*..                                  .7",
"ddddddddddddddddddddddddddddddddddddddddddddddddddddddddddddddddddddddddddddddddddddddddde-.                                  .>",
"ddddddddddddddddddddddddddddddddddddddddddddddddddddddddddddddddddddddddddddddddddddddddddr-..                                .%",
"dddddddddddddddddddddddddddddddddddddddddddddddddddddddddddddddddddddddddddddddddddddddddddt*.                                .#",
"ddddddddddddddddddddddddddddddddddddddddddddddddddddddddddddddddddddddddddddddddddddddddddddt*.                                %",
"dddddddddddddddddddddddddddddddddddddddddddddddddddddddddddddddddddddddddddddddddddddddddddddt*.                              .>",
"ddddddddddddddddddddddddddddddddddddddddddddddddddddddddddddddddddddddddddddddddddddddddddddddt*                              X8",
"ddddddddddddddddddddddddddddddddddddddddddddddddddddddddddddddddddddddddddsisddddddddddddddddddt&.                            $u",
"ddddddddddddddddddddddddddddddddddddddddddddddddddddddddddddddddddddddddds7&wsddddddddddddddddddy*.                          X5s",
"dddddddddddddddddddddddddddddddddddddddddddddddddddddddddddddddddddddddds8O.#wsddddddddddddddddddy*.                        .:id",
"ddddddddddddddddddddddddddddddddddddddddddddddddddddddddddddddddddddddds7+  .#qsddddddddddddddddddt*.                       &tdd",
"dddddddddddddddddddddddddddddddddddddddddddddddddddddddddddddddddddddds6+    .$0sddddddddddddddddddr=.                    .&wsdd",
"ddddddddddddddddddddddddddddddddddddddddddddddddddddddddddddddddddddda6+       $0sdddddddddddddddddde=.                   &wsddd",
"dddddddddddddddddddddddddddddddddddddddddddddddddddddddddddddddddddds7+         $qsdddddddddddddddddde=.                 &wsdddd",
"ddddddddddddddddddddddddddddddddddddddddddddddddddddddddddddddddddds7+          .$wsddddddddddddddddddy*               .$wsddddd",
"dddddddddddddddddddddddddddddddddddddddddddddddddddddddddddddddddds7+            .#wsddddddddddddddddddy*.            .$wddddddd",
"ddddddddddddddddddddddddddddddddddddddddddddddddddddddddddddddddds8O               #0sddddddddddddddddddr*.          .$wsddddddd",
"dddddddddddddddddddddddddddddddddddddddddddddddddddddddddddddddda7o                .$0sddddddddddddddddddr*X        .$wsdddddddd",
"ddddddddddddddddddddddddddddddddddddddddddddddddddddddddddddddds8o                  .#wsddddddddddddddddddy*.       $wsddddddddd",
"dddddddddddddddddddddddddddddddddddddddddddddddddddddddddddddds8o                    .#wsddddddddddddddddddy*.     $wddddddddddd",
"ddddddddddddddddddddddddddddddddddddddddddddddddddddddddddddds7o                       #0sddddddddddddddddddt*.  .%wsddddddddddd",
"dddddddddddddddddddddddddddddddddddddddddddddddddddddddddddds7o                        .$0sddddddddddddddddddr=. &wsdddddddddddd",
"ddddddddddddddddddddddddddddddddddddddddddddddddddddddddddds6+                           $0sddddddddddddddddddr-*qsddddddddddddd",
"dddddddddddddddddddddddddddddddddddddddddddddddddddddddddds6+                            .$0sddddddddddddddddddyysdddddddddddddd",
"ddddddddddddddddddddddddddddddddddddddddddddddddddddddddds6+                               $0ddddddddddddddddddddddddddddddddddd",
"dddddddddddddddddddddddddddddddddddddddddddddddddddddddds7+                                .#wsddddddddddddddddddddddddddddddddd",
"ddddddddddddddddddddddddddddddddddddddddddddddddddddddds7+.                                 .#qsdddddddddddddddddddddddddddddddd",
"dddddddddddddddddddddddddddddddddddddddddddddddddddddds8O                                    .#0sddddddddddddddddddddddddddddddd",
"ddddddddddddddddddddddddddddddddddddddddddddddddddddds7o                                       #wsdddddddddddddddddddddddddddddd",
"dddddddddddddddddddddddddddddddddddddddddddddddddddds7o                                         #wsddddddddddddddddddddddddddddd",
"ddddddddddddddddddddddddddddddddddddddddddddddddddds8o                                          .#wsdddddddddddddddddddddddddddd",
"dddddddddddddddddddddddddddddddddddddddddddddddddds7O                                            .#wsddddddddddddddddddddddddddd",
"ddddddddddddddddddddddddddddddddddddddddddddddddds7+.                                             .$0sdddddddddddddddddddddddddd",
"dddddddddddddddddddddddddddddddddddddddddddddddds6O                                                 %wdddddddddddddddddddddddddd",
"ddddddddddddddddddddddddddddddddddddddddddddddds6@                                                 .&rdddddddddddddddddddddddddd",
"dddddddddddddddddddddddddddddddddddddddddddddds6+                                                  $wsdddddddddddddddddddddddddd",
"ddddddddddddddddddddddddddddddddddddddddddddds7+                                                 .$wdddddddddddddddddddddddddddd",
"dddddddddddddddddddddddddddddddddddddddddddds8O                                                 .$wsdddddddddddddddddddddddddddd",
"ddddddddddddddddddddddddddddddddddddddddddds7O                                                 .$wdddddddddddddddddddddddddddddd",
"dddddddddddddddddddddddddddddddddddddddddds7O                                                 .$wsdddddddddddddddddddddddddddddd",
"ddddddddddddddddddddddddddddddddddddddddds7o                                                  $wsddddddddddddddddddddddddddddddd",
"dddddddddddddddddddddddddddddddddddddddds7+                                                 .$wddddddddddddddddddddddddddddddddd",
"ddddddddddddddddddddddddddddddddddddddds7+                                                  &wsddddddddddddddddddddddddddddddddd",
"dddddddddddddddddddddddddddddddddddddds6O                                                  %wsdddddddddddddddddddddddddddddddddd",
"ddddddddddddddddddddddddddddddddddddds3.                                                  &wsddddddddddddddddddddddddddddddddddd",
"dddddddddddddddddddddddddddddddddddds5O                                                 .%wsdddddddddddddddddddddddddddddddddddd",
"ddddddddddddddddddddddddddddddddddds7O                                                  $wsddddddddddddddddddddddddddddddddddddd",
"dddddddddddddddddddddddddddddddddds7O                                                  $wsdddddddddddddddddddddddddddddddddddddd",
"ddddddddddddddddddddddddddddddddds7O                                                 .%wdddddddddddddddddddddddddddddddddddddddd",
"dddddddddddddddddddddddddddddddds7o                                                 .$wsdddddddddddddddddddddddddddddddddddddddd",
"ddddddddddddddddddddddddddddddds8o                                                  $wsddddddddddddddddddddddddddddddddddddddddd",
"dddddddddddddddddddddddddddddds8o                                                 .$wddddddddddddddddddddddddddddddddddddddddddd",
"ddddddddddddddddddddddddddddds7O                                                 .$wdddddddddddddddddddddddddddddddddddddddddddd",
"dddddddddddddddddddddddddddds7+                                                  &wsdddddddddddddddddddddddddddddddddddddddddddd",
"ddddddddddddddddddddddddddds5+.                                                 &wsddddddddddddddddddddddddddddddddddddddddddddd",
"dddddddddddddddddddddddddds7@                                                  Owsdddddddddddddddddddddddddddddddddddddddddddddd",
"ddddddddddddddddddddddddds5O                                                  $wsddddddddddddddddddddddddddddddddddddddddddddddd",
"dddddddddddddddddddddddds7O.                                                 $wsdddddddddddddddddddddddddddddddddddddddddddddddd",
"ddddddddddddddddddddddds8O                                                 .$wdddddddddddddddddddddddddddddddddddddddddddddddddd",
"dddddddddddddddddddddds8o                                                 .%wsdddddddddddddddddddddddddddddddddddddddddddddddddd",
"ddddddddddddddddddddds8o                                                  $wsddddddddddddddddddddddddddddddddddddddddddddddddddd",
"dddddddddddddddddddds7O                                                 .$wddddddddddddddddddddddddddddddddddddddddddddddddddddd",
"ddddddddddddddddddds8o                                                  $esddddddddddddddddddddddddddddddddddddddddddddddddddddd",
"dddddddddddddddddds8o                                                  $wsdddddddddddddddddddddddddddddddddddddddddddddddddddddd",
"ddddddddddddddddds5O.                                                .&wsddddddddddddddddddddddddddddddddddddddddddddddddddddddd",
"dddddddddddddddds7O.                                                 &wsdddddddddddddddddddddddddddddddddddddddddddddddddddddddd",
"ddddddddddddddds7O                                                 .&wsddddddddddddddddddddddddddddddddddddddddddddddddddddddddd",
"dddddddddddddds6O                                                  %wsdddddddddddddddddddddddddddddddddddddddddddddddddddddddddd",
"ddddddddddddds9+..                                                %wsddddddddddddddddddddddddddddddddddddddddddddddddddddddddddd",
"dddddddddddddsyq95:O.                                            $wsdddddddddddddddddddddddddddddddddddddddddddddddddddddddddddd",
"dddddddddddddddssspr-.                                         .%wdddddddddddddddddddddddddddddddddddddddddddddddddddddddddddddd",
"ddddddddddddddddddddwo                                        .$wsdddddddddddddddddddddddddddddddddddddddddddddddddddddddddddddd",
"ddddddddddddddddddddp%                                        $wdddddddddddddddddddddddddddddddddddddddddddddddddddddddddddddddd",
"dddddddddddddddddddds-                                      .$wddddddddddddddddddddddddddddddddddddddddddddddddddddddddddddddddd",
"dddddddddddddddddddds,                                      &wsddddddddddddddddddddddddddddddddddddddddddddddddddddddddddddddddd",
"dddddddddddddddddddds1                                     %wsdddddddddddddddddddddddddddddddddddddddddddddddddddddddddddddddddd",
"dddddddddddddddddddds3.                                   &wsddddddddddddddddddddddddddddddddddddddddddddddddddddddddddddddddddd",
"dddddddddddddddddddds4X                                 .&wsdddddddddddddddddddddddddddddddddddddddddddddddddddddddddddddddddddd",
"dddddddddddddddddddds6.                                 %wsddddddddddddddddddddddddddddddddddddddddddddddddddddddddddddddddddddd",
"dddddddddddddddddddds7X                                #wsdddddddddddddddddddddddddddddddddddddddddddddddddddddddddddddddddddddd",
"dddddddddddddddddddds9X                              .$wsddddddddddddddddddddddddddddddddddddddddddddddddddddddddddddddddddddddd",
"dddddddddddddddddddddq.                             .$wsdddddddddddddddddddddddddddddddddddddddddddddddddddddddddddddddddddddddd",
"dddddddddddddddddddddeX                            .$wdddddddddddddddddddddddddddddddddddddddddddddddddddddddddddddddddddddddddd",
"ddddddddddddddddddddduo                           .$wsdddddddddddddddddddddddddddddddddddddddddddddddddddddddddddddddddddddddddd",
"dddddddddddddddddddddp&                           $wsddddddddddddddddddddddddddddddddddddddddddddddddddddddddddddddddddddddddddd",
"ddddddddddddddddddddds4.                         &wddddddddddddddddddddddddddddddddddddddddddddddddddddddddddddddddddddddddddddd",
"ddddddpesdddddddddddddi,&o                      &wsddddddddddddddddddddddddddddddddddddddddddddddddddddddddddddddddddddddddddddd",
"ddddddq*6sdddddddddddddar9622,,>>**&@X        .&wsdddddddddddddddddddddddddddddddddddddddddddddddddddddddddddddddddddddddddddddd",
"dddddd2X+6sddddddddddddddddssppiiuyye9-.     .%wsddddddddddddddddddddddddddddddddddddddddddddddddddddddddddddddddddddddddddddddd",
"dddddi*  o6sddddddddddddddddddddddddddw#    .$wsdddddddddddddddddddddddddddddddddddddddddddddddddddddddddddddddddddddddddddddddd",
"ddddd9+   +6sddddddddddddddddddddddddds>.   %wsddddddddddddddddddddddddddddddddddddddddddddddddddddddddddddddddddddddddddddddddd",
"dddds1..   +6sddddddddddddddddddddddddd6o .%wsdddddddddddddddddddddddddddddddddddddddddddddddddddddddddddddddddddddddddddddddddd",
"ddddy*      O4sdddddddddddddddddddddddde# $wsddddddddddddddddddddddddddddddddddddddddddddddddddddddddddddddddddddddddddddddddddd",
"dddd9o       O6sdddddddddddddddddddddddp$$wsdddddddddddddddddddddddddddddddddddddddddddddddddddddddddddddddddddddddddddddddddddd",
"ddds1         O6addddddddddddddddddddddp,wdddddddddddddddddddddddddddddddddddddddddddddddddddddddddddddddddddddddddddddddddddddd",
"dddy&          +6sdddddddddddddddddddddspsdddddddddddddddddddddddddddddddddddddddddddddddddddddddddddddddddddddddddddddddddddddd",
"dds0X           +7sddddddddddddddddddddddddddddddddddddddddddddddddddddddddddddddddddddddddddddddddddddddddddddddddddddddddddddd",
"ddp<             +6adddddddddddddddddddddddddddddddddddddddddddddddddddddddddddddddddddddddddddddddddddddddddddddddddddddddddddd",
"ddy#              +6sddddddddddddddddddddddddddddddddddddddddddddddddddddddddddddddddddddddddddddddddddddddddddddddddddddddddddd",
"ds9.               +6sdddddddddddddddddddddddddddddddddddddddddddddddddddddddddddddddddddddddddddddddddddddddddddddddddddddddddd",
"dp,                 +4sddddddddddddddddddddddddddddddddddddddddddddddddddddddddddddddddddddddddddddddddddddddddddddddddddddddddd",
"di&                  #8ddddddddddddddddddddddddddddddddddddddddddddddddddddddddddddddddddddddddddddddddddddddddddddddddddddddddd",
"di$               .X#,wddddddddddddddddddddddddddddddddddddddddddddddddddddddddddddddddddddddddddddddddddddddddddddddddddddddddd",
"dp-            .X+;7issddddddddddddddddddddddddddddddddddddddddddddddddddddddddddddddddddddddddddddddddddddddddddddddddddddddddd",
"ds9X         X@*6ysddddddddddddddddddddddddddddddddddddddddddddddddddddddddddddddddddddddddddddddddddddddddddddddddddddddddddddd",
"ddi,o     X+&2esdddddddddddddddddddddddddddddddddddddddddddddddddddddddddddddddddddddddddddddddddddddddddddddddddddddddddddddddd",
"dddi2&Oo#&<0addddddddddddddddddddddddddddddddddddddddddddddddddddddddddddddddddddddddddddddddddddddddddddddddddddddddddddddddddd",
"ddddsr97qudddddddddddddddddddddddddddddddddddddddddddddddddddddddddddddddddddddddddddddddddddddddddddddddddddddddddddddddddddddd"
};
