/* XPM */
static char *_ed238d39aa446a4bea397be5bc9b8d18ZmXLoK8ZBk5HeaL[] = {
/* columns rows colors chars-per-pixel */
"16 16 37 1 ",
"  c #3498DB",
". c #3598DB",
"X c #45A0DE",
"o c #46A1DE",
"O c #51A6E0",
"+ c #54A8E0",
"@ c #54A8E1",
"# c #55A8E1",
"$ c #57A9E1",
"% c #5FADE2",
"& c #68B2E4",
"* c #6BB3E4",
"= c #87C2E9",
"- c #87C2EA",
"; c #89C3EA",
": c #8FC5EB",
"> c #96C9EC",
", c #97CAEC",
"< c #9ACBED",
"1 c #A3D0EF",
"2 c #A7D2EF",
"3 c #B1D7F1",
"4 c #BDDDF3",
"5 c #C5E1F5",
"6 c #C8E3F5",
"7 c #DAECF8",
"8 c #DCEDF9",
"9 c #E2F0FA",
"0 c #EBF4FB",
"q c #EBF5FB",
"w c #EDF5FC",
"e c #EDF6FC",
"r c #F2F8FD",
"t c #F9FCFE",
"y c #FDFEFF",
"u c #FEFEFF",
"i c white",
/* pixels */
"iiiiiiiiiiiy>&8i",
"iiiiiiiiiii=  o8",
"iiiiiiiiiir$   O",
"iiiiiiiiy5iw$  %",
"iiiiiiiy= 1iw$$0",
"iiiiiiy=   1iw0i",
"iiiiii=     3iii",
"iiiii=     @0iii",
"iiiy=     $0iiii",
"iiy=     $0iiiii",
"iy=     O0iiiiii",
"it<    $0iiiiiii",
"ii5   O0iiiiiiii",
"97r2:@wiiiiiiiii",
">X7iiqiiiiiiiiii",
";&4iiiiiiiiiiiii"
};
