/* XPM */
static char *_353c60f9e474f6e9b84a4dce14cd2a42SlIIyRAruAJ4SoW[] = {
/* columns rows colors chars-per-pixel */
"16 16 27 1 ",
"  c #E74C3C",
". c #E74F3F",
"X c #E85343",
"o c #E85647",
"O c #E95A4B",
"+ c #EA6254",
"@ c #EB685A",
"# c #EB695C",
"$ c #ED7569",
"% c #F3A69E",
"& c #F7C2BC",
"* c #F7C3BD",
"= c #F7C4BE",
"- c #F8CBC6",
"; c #F8CDC8",
": c #FAD8D4",
"> c #FAD9D5",
", c #FADAD7",
"< c #FBE1DE",
"1 c #FDEBEA",
"2 c #FDECEA",
"3 c #FDEFED",
"4 c #FEF3F2",
"5 c #FEF5F5",
"6 c #FEF9F8",
"7 c #FFFBFA",
"8 c white",
/* pixels */
"8<;;;-+XXO=;;;:8",
"8@            o7",
"8522222222222248",
"81%%%%%%%%%%%%<8",
"8:            &8",
"8:            &8",
"8:            &8",
"8:            &8",
"8:            &8",
"8:            &8",
"8:            &8",
"8:            &8",
"8:            &8",
"8:            &8",
"8>            &8",
"87$ X  X X X #38"
};
